<svg width="20" height="21" viewBox="0 0 20 21" fill="none" xmlns="http://www.w3.org/2000/svg">
<path d="M17.5 5.68774C17.5 5.23131 17.1231 4.85441 16.6667 4.85441H3.33337C2.87694 4.85441 2.50004 5.23131 2.50004 5.68774V15.6877C2.50004 16.1442 2.87694 16.5211 3.33337 16.5211H16.6667C17.1231 16.5211 17.5 16.1442 17.5 15.6877V5.68774ZM19.1667 15.6877C19.1667 17.0646 18.0436 18.1877 16.6667 18.1877H3.33337C1.95647 18.1877 0.833374 17.0646 0.833374 15.6877V5.68774C0.833374 4.31084 1.95647 3.18774 3.33337 3.18774H16.6667C18.0436 3.18774 19.1667 4.31084 19.1667 5.68774V15.6877Z" fill="#344054"/>
<path d="M17.8557 5.00502C18.2327 4.74123 18.7523 4.83311 19.0162 5.2101C19.2799 5.58712 19.1881 6.10669 18.8111 6.37058L10.4777 12.2039C10.1909 12.4046 9.80921 12.4046 9.52235 12.2039L1.18901 6.37058L1.12147 6.31849C0.801584 6.04262 0.736591 5.56362 0.983934 5.2101C1.23128 4.85675 1.70332 4.75373 2.07199 4.95944L2.14442 5.00502L10 10.5039L17.8557 5.00502Z" fill="#344054"/>
</svg>
