<svg width="24" height="25" viewBox="0 0 24 25" fill="none" xmlns="http://www.w3.org/2000/svg">
<g clip-path="url(#clip0_792_9315)">
<path fill-rule="evenodd" clip-rule="evenodd" d="M12 10.7832C10.8954 10.7832 10 11.6786 10 12.7832C10 13.8878 10.8954 14.7832 12 14.7832C13.1046 14.7832 14 13.8878 14 12.7832C14 11.6786 13.1046 10.7832 12 10.7832ZM8 12.7832C8 10.5741 9.79086 8.7832 12 8.7832C14.2091 8.7832 16 10.5741 16 12.7832C16 14.9923 14.2091 16.7832 12 16.7832C9.79086 16.7832 8 14.9923 8 12.7832Z" fill="#101828"/>
<path fill-rule="evenodd" clip-rule="evenodd" d="M12 2.7832C11.7348 2.7832 11.4804 2.88856 11.2929 3.0761C11.1054 3.26363 11 3.51799 11 3.7832V3.95719C10.9979 4.474 10.8448 4.97893 10.5594 5.40982C10.2741 5.84071 9.86895 6.17875 9.39393 6.38234C9.30938 6.41858 9.22042 6.4429 9.12961 6.45477C8.69798 6.60592 8.23333 6.64318 7.781 6.56116C7.26 6.4667 6.77925 6.21832 6.40073 5.84807L6.39285 5.84035L6.33289 5.78031C6.24002 5.68733 6.12934 5.61318 6.00794 5.56286C5.88654 5.51253 5.75642 5.48663 5.625 5.48663C5.49358 5.48663 5.36346 5.51253 5.24206 5.56286C5.12066 5.61318 5.01037 5.68694 4.9175 5.77992L4.91671 5.7807C4.82374 5.87358 4.74998 5.98386 4.69965 6.10526C4.64933 6.22666 4.62343 6.35679 4.62343 6.4882C4.62343 6.61962 4.64933 6.74974 4.69965 6.87114C4.74998 6.99254 4.82374 7.10283 4.91671 7.1957L4.98491 7.2639C5.35516 7.64241 5.60349 8.12321 5.69796 8.64421C5.79055 9.15483 5.73113 9.68117 5.52745 10.158C5.34189 10.6445 5.01698 11.0659 4.59305 11.3691C4.16054 11.6784 3.64498 11.8505 3.11338 11.8629L3.09 11.8632H3C2.73478 11.8632 2.48043 11.9686 2.29289 12.1561C2.10536 12.3436 2 12.598 2 12.8632C2 13.1284 2.10536 13.3828 2.29289 13.5703C2.48043 13.7578 2.73478 13.8632 3 13.8632H3.17399C3.6908 13.8653 4.19572 14.0184 4.62661 14.3038C5.05601 14.5881 5.3932 14.9914 5.59701 15.4643C5.80908 15.9475 5.87211 16.483 5.77796 17.0022C5.68349 17.5232 5.43512 18.004 5.06486 18.3825L5.05715 18.3904L4.9971 18.4503C4.90413 18.5432 4.82998 18.6539 4.77965 18.7753C4.72933 18.8967 4.70343 19.0268 4.70343 19.1582C4.70343 19.2896 4.72933 19.4197 4.77965 19.5411C4.82998 19.6625 4.90374 19.7728 4.99671 19.8657L4.9975 19.8665C5.09037 19.9595 5.20066 20.0332 5.32206 20.0835C5.44346 20.1339 5.57359 20.1598 5.705 20.1598C5.83641 20.1598 5.96654 20.1339 6.08794 20.0835C6.20934 20.0332 6.31963 19.9595 6.4125 19.8665L6.48069 19.7983C6.85921 19.428 7.34 19.1797 7.861 19.0852C8.37163 18.9927 8.89796 19.0521 9.37477 19.2557C9.86132 19.4413 10.2827 19.7662 10.5859 20.1902C10.8952 20.6227 11.0673 21.1382 11.0797 21.6698L11.08 21.6932V21.7832C11.08 22.0484 11.1854 22.3028 11.3729 22.4903C11.5604 22.6778 11.8148 22.7832 12.08 22.7832C12.3452 22.7832 12.5996 22.6778 12.7871 22.4903C12.9746 22.3028 13.08 22.0484 13.08 21.7832V21.6132L13.08 21.6092C13.0821 21.0924 13.2352 20.5875 13.5206 20.1566C13.805 19.7272 14.2083 19.3899 14.6812 19.1861C15.1643 18.9741 15.6998 18.9111 16.219 19.0052C16.74 19.0997 17.2207 19.3481 17.5993 19.7183L17.6071 19.7261L17.6671 19.7861C17.76 19.8791 17.8707 19.9532 17.9921 20.0035C18.1135 20.0539 18.2436 20.0798 18.375 20.0798C18.5064 20.0798 18.6365 20.0539 18.7579 20.0035C18.8793 19.9532 18.9896 19.8795 19.0825 19.7865L19.0833 19.7857C19.1763 19.6928 19.25 19.5825 19.3003 19.4611C19.3507 19.3397 19.3766 19.2096 19.3766 19.0782C19.3766 18.9468 19.3507 18.8167 19.3003 18.6953C19.25 18.5739 19.1763 18.4636 19.0833 18.3707L19.0151 18.3025C18.6448 17.924 18.3965 17.4432 18.302 16.9222C18.2079 16.403 18.2709 15.8676 18.4829 15.3844C18.6867 14.9115 19.024 14.5082 19.4534 14.2238C19.8843 13.9384 20.3892 13.7853 20.906 13.7832L20.91 13.7832L21 13.7832C21.2652 13.7832 21.5196 13.6778 21.7071 13.4903C21.8946 13.3028 22 13.0484 22 12.7832C22 12.518 21.8946 12.2636 21.7071 12.0761C21.5196 11.8886 21.2652 11.7832 21 11.7832H20.83L20.826 11.7832C20.3092 11.7811 19.8043 11.628 19.3734 11.3426C18.9425 11.0573 18.6045 10.6522 18.4009 10.1771C18.3646 10.0926 18.3403 10.0036 18.3284 9.91281C18.1773 9.48118 18.14 9.01653 18.222 8.5642C18.3165 8.04321 18.5649 7.56245 18.9351 7.18394L18.9428 7.17606L19.0029 7.1161C19.0959 7.02322 19.17 6.91254 19.2203 6.79114C19.2707 6.66974 19.2966 6.53962 19.2966 6.4082C19.2966 6.27679 19.2707 6.14666 19.2203 6.02526C19.17 5.90387 19.0963 5.79358 19.0033 5.7007L19.0025 5.69992C18.9096 5.60694 18.7993 5.53318 18.6779 5.48286C18.5565 5.43253 18.4264 5.40663 18.295 5.40663C18.1636 5.40663 18.0335 5.43253 17.9121 5.48286C17.7907 5.53318 17.6804 5.60694 17.5875 5.69992L17.5193 5.76811C17.1408 6.13837 16.66 6.3867 16.139 6.48116C15.6198 6.57531 15.0843 6.51228 14.6011 6.30022C14.1282 6.0964 13.7249 5.75921 13.4406 5.32982C13.1552 4.89893 13.0021 4.394 13 3.87719L13 3.8732V3.7832C13 3.51799 12.8946 3.26363 12.7071 3.0761C12.5196 2.88856 12.2652 2.7832 12 2.7832ZM9.87868 1.66188C10.4413 1.09927 11.2044 0.783203 12 0.783203C12.7956 0.783203 13.5587 1.09927 14.1213 1.66188C14.6839 2.22449 15 2.98755 15 3.7832V3.8707C15.0008 3.99695 15.0383 4.12024 15.1081 4.22552C15.178 4.33121 15.2774 4.41413 15.3939 4.46406L15.4038 4.46829C15.5226 4.52073 15.6544 4.53642 15.7822 4.51325C15.9086 4.49033 16.0253 4.43049 16.1177 4.34131L16.1725 4.28649C16.4511 4.00756 16.782 3.78628 17.1462 3.63531C17.5104 3.48434 17.9008 3.40663 18.295 3.40663C18.6892 3.40663 19.0796 3.48434 19.4438 3.63531C19.808 3.78628 20.1389 4.00756 20.4175 4.28649C20.6961 4.56494 20.9171 4.89553 21.0679 5.25938C21.2189 5.62358 21.2966 6.01396 21.2966 6.4082C21.2966 6.80245 21.2189 7.19283 21.0679 7.55702C20.917 7.92105 20.6959 8.25177 20.4171 8.53031C20.417 8.53044 20.4172 8.53018 20.4171 8.53031L20.3619 8.58551C20.2727 8.67788 20.2129 8.79462 20.19 8.92102C20.1668 9.04882 20.1824 9.18062 20.2349 9.29944C20.2631 9.36348 20.2845 9.43013 20.2988 9.49827C20.3461 9.56799 20.4068 9.62818 20.4777 9.67515C20.583 9.74487 20.7063 9.78241 20.8325 9.7832H21C21.7957 9.7832 22.5587 10.0993 23.1213 10.6619C23.6839 11.2245 24 11.9876 24 12.7832C24 13.5789 23.6839 14.3419 23.1213 14.9045C22.5587 15.4671 21.7957 15.7832 21 15.7832H20.9125C20.7863 15.784 20.663 15.8215 20.5577 15.8913C20.452 15.9613 20.3691 16.0606 20.3191 16.1771L20.3149 16.187C20.2625 16.3058 20.2468 16.4376 20.27 16.5654C20.2929 16.6918 20.3527 16.8085 20.4419 16.9009L20.4967 16.9557C20.4966 16.9556 20.4968 16.9558 20.4967 16.9557C20.7755 17.2342 20.997 17.5654 21.1479 17.9294C21.2989 18.2936 21.3766 18.684 21.3766 19.0782C21.3766 19.4725 21.2989 19.8628 21.1479 20.227C20.9969 20.5912 20.7756 20.9221 20.4967 21.2007L19.79 20.4932L20.4975 21.1999C20.2189 21.4788 19.888 21.7001 19.5238 21.8511C19.1596 22.0021 18.7692 22.0798 18.375 22.0798C17.9808 22.0798 17.5904 22.0021 17.2262 21.8511C16.8622 21.7002 16.5314 21.4791 16.2529 21.2003C16.2528 21.2002 16.253 21.2004 16.2529 21.2003L16.1977 21.1451C16.1053 21.0559 15.9886 20.9961 15.8622 20.9732C15.7344 20.95 15.6026 20.9656 15.4838 21.0181L15.474 21.0224C15.3574 21.0723 15.258 21.1552 15.1881 21.2609C15.1183 21.3662 15.0808 21.4895 15.08 21.6157V21.7832C15.08 22.5789 14.7639 23.3419 14.2013 23.9045C13.6387 24.4671 12.8757 24.7832 12.08 24.7832C11.2843 24.7832 10.5213 24.4671 9.95868 23.9045C9.39607 23.3419 9.08 22.5789 9.08 21.7832V21.7076C9.07526 21.5804 9.03327 21.4573 8.95914 21.3537C8.88326 21.2476 8.77723 21.1668 8.65482 21.1217C8.63505 21.1145 8.61551 21.1066 8.59624 21.0981C8.47742 21.0456 8.34561 21.03 8.21782 21.0532C8.09142 21.0761 7.97467 21.1359 7.8823 21.2251L7.8275 21.2799C7.82737 21.28 7.82763 21.2798 7.8275 21.2799C7.54896 21.5587 7.21784 21.7802 6.85382 21.9311C6.48963 22.0821 6.09925 22.1598 5.705 22.1598C5.31075 22.1598 4.92037 22.0821 4.55618 21.9311C4.19233 21.7803 3.86174 21.5593 3.58329 21.2807C3.30436 21.0021 3.08308 20.6712 2.93211 20.307C2.78113 19.9428 2.70343 19.5525 2.70343 19.1582C2.70343 18.764 2.78113 18.3736 2.93211 18.0094C3.08308 17.6452 3.30436 17.3143 3.58329 17.0357L3.63811 16.9809C3.72728 16.8885 3.78713 16.7718 3.81005 16.6454C3.83322 16.5176 3.81758 16.3858 3.76514 16.267L3.76081 16.2572C3.71087 16.1406 3.62801 16.0412 3.52232 15.9713C3.41704 15.9015 3.29374 15.864 3.1675 15.8632H3C2.20435 15.8632 1.44129 15.5471 0.87868 14.9845C0.316071 14.4219 0 13.6589 0 12.8632C0 12.0676 0.316071 11.3045 0.87868 10.7419C1.44129 10.1793 2.20435 9.8632 3 9.8632H3.07564C3.20283 9.85846 3.32591 9.81647 3.42955 9.74234C3.53564 9.66647 3.61644 9.56043 3.66146 9.43802C3.66874 9.41825 3.67663 9.39871 3.68514 9.37944C3.73758 9.26062 3.75322 9.12882 3.73005 9.00102C3.70713 8.87463 3.64728 8.75788 3.5581 8.66551L3.50329 8.6107C3.22436 8.33208 3.00308 8.00122 2.85211 7.63702C2.70113 7.27283 2.62343 6.88245 2.62343 6.4882C2.62343 6.09396 2.70113 5.70358 2.85211 5.33938C3.00301 4.97536 3.22415 4.64463 3.50289 4.3661C3.78143 4.08735 4.11216 3.86621 4.47618 3.71531C4.84037 3.56434 5.23075 3.48663 5.625 3.48663C6.01925 3.48663 6.40963 3.56434 6.77382 3.71531C7.13802 3.86628 7.46888 4.08756 7.7475 4.36649L7.80231 4.4213C7.89468 4.51048 8.01142 4.57033 8.13782 4.59325C8.26561 4.61642 8.39742 4.60078 8.51624 4.54834C8.58027 4.52008 8.64693 4.49869 8.71507 4.48443C8.78479 4.4371 8.84498 4.37644 8.89195 4.30552C8.96167 4.20024 8.99921 4.07695 9 3.9507V3.7832C9 2.98755 9.31607 2.22449 9.87868 1.66188Z" fill="#101828"/>
</g>
<defs>
<clipPath id="clip0_792_9315">
<rect width="24" height="24" fill="white" transform="translate(0 0.783203)"/>
</clipPath>
</defs>
</svg>
