<svg width="41" height="41" viewBox="0 0 41 41" fill="none" xmlns="http://www.w3.org/2000/svg">
<rect x="0.5" y="0.566406" width="40" height="40" rx="16" fill="#27B3F4"/>
<path fill-rule="evenodd" clip-rule="evenodd" d="M20.4998 13.8997C20.9601 13.8997 21.3332 14.2728 21.3332 14.733V26.3997C21.3332 26.8599 20.9601 27.233 20.4998 27.233C20.0396 27.233 19.6665 26.8599 19.6665 26.3997V14.733C19.6665 14.2728 20.0396 13.8997 20.4998 13.8997Z" fill="white"/>
<path fill-rule="evenodd" clip-rule="evenodd" d="M13.8335 20.5665C13.8335 20.1063 14.2066 19.7332 14.6668 19.7332H26.3335C26.7937 19.7332 27.1668 20.1063 27.1668 20.5665C27.1668 21.0267 26.7937 21.3998 26.3335 21.3998H14.6668C14.2066 21.3998 13.8335 21.0267 13.8335 20.5665Z" fill="white"/>
</svg>
