<svg width="147" height="25" viewBox="0 0 147 25" fill="none" xmlns="http://www.w3.org/2000/svg">
<g clip-path="url(#clip0_188_10942)">
<path d="M10.2481 1.71878C19.0427 1.71878 22.6756 3.48341 22.6756 6.81314C22.6756 9.22299 21.2841 10.1066 18.0917 10.7181C17.4802 10.8529 17.1744 11.0913 17.1744 11.4981C17.1744 12.0086 17.6486 12.2107 18.4986 12.2107C19.3485 12.2107 20.0611 11.9723 20.841 11.9723C23.694 11.9723 25.1192 14.6879 25.1192 18.3208C25.1192 22.1921 23.5566 24.0604 19.7216 24.0604C15.8866 24.0604 13.9147 22.3631 13.8473 17.7119C13.8136 13.5011 12.93 12.4154 11.6059 12.4154C10.7896 12.4154 10.4865 12.8559 10.4865 13.4674C10.4865 15.5715 12.4221 16.9319 12.4221 19.987C12.4221 22.7026 10.5875 24.0967 7.56615 24.0967C3.18696 24.0967 1.08029 22.7052 0.808212 19.3417C0.603505 16.4214 1.48712 13.9079 1.89394 11.2934C2.33445 8.88354 2.57284 6.77686 3.28543 4.74015C4.0343 2.53501 5.8663 1.71878 10.2481 1.71878ZM12.0464 9.66609C14.1505 9.66609 15.3735 9.15561 15.3735 8.06989C15.3735 6.84683 14.3215 6.33894 11.6733 6.33894C10.2144 6.33894 9.26341 6.57734 9.26341 7.93514C9.26341 9.19189 9.94231 9.66609 12.049 9.66609M10.2481 0.941406C6.23685 0.941406 3.54974 1.5348 2.54952 4.4914C1.98722 6.09796 1.70996 7.74598 1.41715 9.48988C1.32646 10.0289 1.23317 10.586 1.12953 11.1535V11.1638L1.12693 11.1742C1.00774 11.9308 0.852263 12.6693 0.686425 13.4519C0.289966 15.3124 -0.119449 17.2377 0.0308426 19.3962C0.427301 24.3066 4.51886 24.874 7.56356 24.874C11.0902 24.874 13.1969 23.0472 13.1969 19.987C13.1969 18.1342 12.5672 16.8697 12.0127 15.7529C11.6085 14.9418 11.2612 14.2396 11.2612 13.4674C11.2612 13.2549 11.2612 13.1928 11.6033 13.1928C11.9946 13.1928 13.0311 13.1928 13.0673 17.7196C13.1373 22.5782 15.2517 24.8403 19.719 24.8403C23.8754 24.8403 25.8939 22.7078 25.8939 18.3234C25.8939 13.939 23.9557 11.1975 20.8384 11.1975C20.3953 11.1975 19.9885 11.2597 19.5972 11.3219C19.2241 11.3789 18.8691 11.4359 18.496 11.4359C18.4882 11.4359 18.4804 11.4359 18.4726 11.4359C21.551 10.814 23.4478 9.79306 23.4478 6.81314C23.453 1.55035 15.9151 0.941406 10.2481 0.941406ZM12.0464 8.88872C10.0382 8.88872 10.0382 8.48708 10.0382 7.93514C10.0382 7.44281 10.0382 7.11631 11.6707 7.11631C14.5936 7.11631 14.5936 7.76153 14.5936 8.06989C14.5936 8.67365 13.2772 8.88872 12.0438 8.88872H12.0464Z" fill="#101828"/>
<path d="M44.0996 1.65139C45.6958 1.65139 46.5431 2.26292 47.2583 3.9265C47.9372 5.7274 48.0383 8.13725 48.5151 10.9902C48.9219 14.3173 50.3833 16.8308 50.1786 19.9895C49.9402 22.7052 48.6835 24.0293 45.6621 24.0293C43.1486 24.0293 41.7571 23.1457 41.7571 20.5985C41.7571 18.4244 42.8092 16.183 42.8092 14.6231C42.8092 13.5374 42.436 13.128 41.7234 13.128C41.0108 13.128 40.5341 13.7395 40.2983 15.232C40.1972 16.1157 40.1272 17.3024 39.8241 19.036C39.2125 22.7363 37.2095 24.0604 33.2371 24.0604C28.5185 24.0604 26.3782 22.3294 26.0724 18.7639C25.8677 15.9446 26.956 13.8742 27.4302 10.8529C27.9407 8.13725 28.0417 5.86215 28.7206 3.96018C29.4332 2.22924 30.4179 1.68508 31.913 1.68508C33.7476 1.68508 34.9007 2.46504 35.2065 4.16489C35.4449 5.79477 34.9007 7.1189 35.2739 8.34196C35.5459 9.53133 36.4969 9.8371 37.9895 9.8371C39.6867 9.8371 40.503 9.19188 40.8087 8.20721C41.1482 6.98415 40.775 5.76109 41.0134 4.3696C41.3192 2.70603 42.3039 1.65398 44.1022 1.65398M44.0996 0.874023C42.0422 0.874023 40.6351 2.09709 40.2438 4.22708C40.1195 4.9604 40.1428 5.6393 40.1635 6.24047C40.1868 6.88827 40.205 7.45057 40.0599 7.98696C39.9018 8.48966 39.5183 9.05973 37.9869 9.05973C36.3648 9.05973 36.1393 8.6555 36.0279 8.17094L36.0227 8.14502L36.0149 8.11911C35.8621 7.61641 35.9113 7.03338 35.9709 6.35707C36.0305 5.68076 36.0979 4.91376 35.9709 4.05606V4.0431L35.9657 4.03015C35.6029 2.01935 34.1622 0.912892 31.9078 0.912892C29.9877 0.912892 28.7828 1.76282 27.9977 3.66996L27.9899 3.6881L27.9847 3.70624C27.5183 5.00963 27.3188 6.41149 27.0881 8.0336C26.9664 8.88871 26.8394 9.77491 26.6632 10.7181V10.7285L26.6606 10.7388C26.4922 11.809 26.2434 12.7626 25.9998 13.6877C25.5645 15.3461 25.1551 16.9138 25.295 18.8287C25.6422 22.8814 28.2387 24.8481 33.2346 24.8481C37.7329 24.8481 39.9329 23.1509 40.5885 19.1733C40.8191 17.8647 40.9176 16.8645 40.9953 16.0612C41.0212 15.8021 41.0419 15.5663 41.0679 15.3487C41.2207 14.3977 41.441 13.9157 41.7234 13.9157C41.91 13.9157 42.0318 13.9157 42.0318 14.6335C42.0318 15.2528 41.8193 16.0742 41.5939 16.9474C41.3062 18.0669 40.9772 19.3366 40.9772 20.6114C40.9772 23.4411 42.5086 24.8196 45.6595 24.8196C48.9867 24.8196 50.6658 23.3089 50.9508 20.0699V20.0621V20.0543C51.0804 18.0591 50.5829 16.2893 50.1035 14.5765C49.777 13.4156 49.4427 12.2158 49.2821 10.9099V10.8943L49.2769 10.8788C49.124 9.96666 49.0126 9.10637 48.9037 8.27458C48.6731 6.49959 48.471 4.96817 47.9813 3.66996L47.9761 3.65442L47.9683 3.63887C47.1313 1.68767 46.0093 0.892162 44.097 0.892162L44.0996 0.874023Z" fill="#101828"/>
<path d="M70.3829 1.71874C71.9117 1.71874 72.7927 2.2629 73.5079 4.06121C74.1868 5.99686 74.1531 8.03357 74.6973 11.0912C75.3425 14.6904 76.3271 16.6598 76.0888 19.5464C75.8504 22.8062 74.0184 24.0293 70.5202 24.0293C66.2421 24.0293 64.4412 22.4667 63.967 18.1886C62.9486 11.2959 62.1324 9.22295 60.8782 9.22295C60.1993 9.22295 59.8599 9.59609 59.8599 11.0912C59.8599 13.4674 62.4407 16.0146 62.4407 19.6475C62.4407 22.8062 60.4714 24.0267 57.279 24.0267C53.5424 24.0267 51.6094 22.7699 51.371 19.6112C51.1326 16.4525 52.423 14.7889 53.0009 11.0886C53.4414 8.03357 53.4751 6.02796 54.1566 4.09231C54.8355 2.25771 55.9911 1.71615 58.4684 1.71615C61.7618 1.71615 62.7465 2.7345 63.7648 5.41643C64.5111 7.45314 65.5658 8.50777 66.7862 8.50777C67.7035 8.50777 68.1103 7.96361 68.2814 7.04631C68.4861 5.58745 67.9756 4.97592 68.1103 3.58183C68.2451 2.15666 69.0276 1.71355 70.3854 1.71355M70.3829 0.941367C69.6884 0.941367 67.5791 0.941368 67.333 3.51187C67.2578 4.27369 67.3537 4.84376 67.4392 5.34646C67.5247 5.85175 67.5973 6.28708 67.5092 6.92452C67.3563 7.73299 67.0764 7.73299 66.7836 7.73299C65.6124 7.73299 64.8454 6.11606 64.4904 5.15212C63.4073 2.29658 62.2282 0.941367 58.4632 0.941367C56.0093 0.941367 54.312 1.42334 53.4232 3.82541V3.83059L53.4181 3.83577C52.9179 5.26354 52.7521 6.68095 52.5448 8.47408C52.4593 9.21517 52.3608 10.0573 52.2287 10.9772C52.0058 12.3998 51.6767 13.5011 51.358 14.5635C50.8864 16.1441 50.4381 17.6341 50.591 19.6682C50.7284 21.4795 51.3684 22.7751 52.5526 23.6302C53.6409 24.4179 55.1853 24.8014 57.2738 24.8014C62.1816 24.8014 63.2129 21.9977 63.2129 19.6449C63.2129 17.4631 62.3811 15.6907 61.6452 14.1282C61.1011 12.9725 60.632 11.9748 60.632 11.086C60.632 10.3139 60.7357 10.0651 60.7694 10.0029C60.7875 10.0003 60.8212 9.99514 60.873 9.99514C61.1347 9.99514 61.4638 10.4978 61.7748 11.3737C62.2386 12.6848 62.6895 14.8796 63.1922 18.2819C63.7104 22.9098 65.8327 24.7988 70.5176 24.7988C73.0777 24.7988 76.5215 24.2599 76.8609 19.5957C77.0268 17.5693 76.6251 15.9602 76.1613 14.0996C75.9203 13.1383 75.6742 12.1433 75.4591 10.9487C75.2544 9.79302 75.13 8.76689 75.0212 7.86255C74.8398 6.36482 74.6843 5.0692 74.2386 3.7995L74.2334 3.78395L74.2282 3.7684C73.4301 1.75501 72.3159 0.933594 70.3829 0.933594V0.941367Z" fill="#101828"/>
<path d="M83.3879 1.68523C84.883 1.68523 85.834 2.22939 86.5466 3.99402C87.2255 5.89599 87.2255 8.1374 87.7023 11.0914C88.1091 14.6233 89.6379 16.5252 89.3996 19.6813C89.1612 22.8737 87.2255 24.0968 83.3879 24.0968C79.5503 24.0968 77.6146 22.8737 77.3788 19.6813C77.1404 16.5226 78.6693 14.6207 79.0761 11.0914C79.5166 8.1374 79.5166 5.89599 80.1955 3.99402C80.9081 2.22939 81.8591 1.68523 83.3879 1.68523ZM83.3879 0.907865C81.4367 0.907865 80.2655 1.74483 79.4751 3.7038L79.4699 3.71935L79.4648 3.7349C78.9828 5.08234 78.8247 6.54898 78.6433 8.24883C78.5501 9.10912 78.4542 9.99791 78.3091 10.9774V10.9904L78.3065 11.0033C78.1406 12.4492 77.7727 13.6153 77.4177 14.7425C76.9254 16.3102 76.4589 17.7923 76.604 19.7409C76.9461 24.343 80.6412 24.8742 83.3905 24.8742C85.5593 24.8742 87.0856 24.5088 88.1946 23.7211C89.3918 22.8712 90.0396 21.5704 90.1743 19.7409C90.322 17.7949 89.8556 16.3127 89.3607 14.745C89.0057 13.6179 88.6403 12.4518 88.4719 11.0033V10.9852L88.4667 10.967C88.3009 9.93831 88.1946 9.01065 88.0936 8.11408C87.907 6.46865 87.7463 5.04606 87.2773 3.73231L87.2721 3.71676L87.267 3.70121C86.4766 1.74224 85.3158 0.905273 83.3879 0.905273V0.907865Z" fill="#101828"/>
<path d="M113.337 1.71878C116.698 1.71878 117.82 2.33031 118.499 4.09494C119.178 5.9969 119.245 8.0673 119.655 11.055C120.129 14.8226 121.318 16.4888 121.113 19.6786C120.875 22.7674 119.077 24.0578 115.68 24.0578C112.282 24.0578 111.264 22.7674 111.264 19.8807C111.264 15.9757 112.995 14.5842 113.029 11.1198C112.995 9.76196 112.689 9.2178 111.772 9.2178C110.72 9.2178 110.176 10.4746 110.176 12.0371C110.176 14.8226 110.482 16.722 110.515 19.5413C110.482 22.2569 109.393 23.923 105.797 23.923C102.2 23.923 101.112 22.2595 101.112 19.5413C101.112 16.8231 101.451 14.8226 101.451 12.0371C101.451 10.4746 100.873 9.2178 99.8212 9.2178C98.9376 9.2178 98.5982 9.76196 98.5982 11.1198C98.5982 14.5842 100.329 15.9757 100.329 19.8807C100.329 22.7674 99.1397 24.0578 95.9136 24.0578C92.5191 24.0578 90.7182 22.7674 90.5135 19.6786C90.2751 16.4862 91.4645 14.8226 91.9387 11.055C92.3455 8.0673 92.4129 5.99431 93.0944 4.09494C93.7733 2.33031 94.929 1.71878 98.2561 1.71878C102.672 1.71878 103.011 3.07658 103.213 5.28431C103.553 7.15259 104.063 8.33938 105.794 8.33938C107.525 8.33938 108.035 7.15 108.375 5.28431C108.647 3.07658 108.919 1.71878 113.332 1.71878M113.337 0.941406C108.507 0.941406 107.927 2.61275 107.61 5.16771C107.235 7.21737 106.748 7.5646 105.799 7.5646C104.851 7.5646 104.364 7.21996 103.988 5.18066C103.874 3.97056 103.705 2.90556 102.848 2.10746C101.982 1.30418 100.567 0.943997 98.2613 0.943997C95.1596 0.943997 93.3043 1.40265 92.374 3.82027V3.82804L92.3662 3.83581C91.8402 5.30763 91.6666 6.81832 91.4464 8.73065C91.366 9.43029 91.2831 10.1532 91.1743 10.9539C90.9851 12.4543 90.6871 13.5866 90.3969 14.6801C89.9823 16.2452 89.5936 17.7248 89.7439 19.7408C89.9694 23.1716 91.9905 24.8403 95.9188 24.8403C98.5619 24.8403 100.153 23.9645 100.788 22.1144C101.529 23.8531 103.187 24.7056 105.799 24.7056C107.753 24.7056 109.144 24.2444 110.057 23.296C110.373 22.9669 110.624 22.5834 110.818 22.1403C111.461 23.9749 113.047 24.8429 115.68 24.8429C119.592 24.8429 121.624 23.1742 121.888 19.746C122.015 17.7404 121.626 16.2737 121.212 14.7216C120.919 13.6177 120.613 12.475 120.424 10.9643C120.315 10.1558 120.23 9.43288 120.149 8.73324C119.929 6.82091 119.756 5.31023 119.23 3.8384V3.83063L119.222 3.82286C118.395 1.67213 116.91 0.946589 113.335 0.946589L113.337 0.941406ZM111.124 15.9136C111.124 15.9136 111.124 15.8954 111.124 15.8876C111.039 14.6438 110.958 13.47 110.958 12.0422C110.958 11.0524 111.246 10.0004 111.777 10.0004C112.067 10.0004 112.225 10.0004 112.257 11.1301C112.238 12.6641 111.858 13.7706 111.453 14.9444C111.344 15.2632 111.233 15.5819 111.127 15.9136H111.124ZM100.49 15.9628C100.384 15.6259 100.272 15.2994 100.163 14.9755C99.759 13.7939 99.3781 12.6771 99.3781 11.125C99.3781 10.0004 99.5751 10.0004 99.8238 10.0004C100.311 10.0004 100.676 10.8788 100.676 12.0422C100.676 13.4026 100.596 14.5246 100.51 15.714C100.505 15.7969 100.498 15.8799 100.492 15.9628H100.49Z" fill="#101828"/>
<path d="M133.744 1.68523C140.909 1.68523 145.933 7.22011 145.866 14.4186C145.899 20.9718 143.624 24.0631 133.744 24.0631C123.863 24.0631 121.79 20.9744 121.79 14.4548C121.79 7.25639 126.747 1.68783 133.744 1.68783M133.811 11.4982C136.086 11.4982 137.138 10.9878 137.138 9.59627C137.138 8.06744 135.949 7.28748 133.811 7.28748C131.673 7.28748 130.484 8.06744 130.484 9.59627C130.484 10.9204 131.57 11.4982 133.811 11.4982ZM133.744 0.907865C130.17 0.907865 126.913 2.30454 124.573 4.84136C122.278 7.32894 121.016 10.7442 121.016 14.4522C121.016 18.1603 121.827 20.666 123.648 22.2829C125.612 24.0268 128.82 24.8379 133.744 24.8379C139.115 24.8379 142.388 23.9569 144.35 21.985C145.954 20.3732 146.661 18.0359 146.643 14.4134C146.679 10.5809 145.334 7.08277 142.855 4.57964C140.507 2.21125 137.273 0.905273 133.744 0.905273V0.907865ZM133.811 10.7209C131.261 10.7209 131.261 9.96163 131.261 9.59627C131.261 8.58051 132.119 8.06485 133.811 8.06485C136.361 8.06485 136.361 9.21795 136.361 9.59627C136.361 10.0705 136.361 10.7209 133.811 10.7209Z" fill="#101828"/>
</g>
<defs>
<clipPath id="clip0_188_10942">
<rect width="146.646" height="24" fill="white" transform="translate(-0.000488281 0.874023)"/>
</clipPath>
</defs>
</svg>
