<svg width="108" height="25" viewBox="0 0 108 25" fill="none" xmlns="http://www.w3.org/2000/svg">
<g clip-path="url(#clip0_1164_10037)">
<path d="M12.9394 23.8096C13.9822 18.4625 14.5465 14.1642 12.3497 10.3686C14.526 10.4532 17.466 9.28711 18.6152 7.11683C19.3523 5.60754 19.0224 3.84932 16.2214 3.50613C11.6911 2.95148 7.90276 4.86558 6.17233 6.3072C4.65217 7.5736 3.91505 10.0508 5.376 10.3843L4.78509 12.0362C-0.748164 10.1076 0.541197 7.29567 3.59845 4.88854C6.25209 2.7968 13.4118 -1.15587 20.6876 1.5304C28.0371 4.868 20.8568 12.087 16.2214 12.0362L21.3486 23.8096H12.9382H12.9394Z" fill="#101828"/>
<path d="M7.07988 24.5827L11.5328 7.7666H7.07988C6.59289 12.4395 4.58091 19.2295 0.970215 24.5827H7.07988Z" fill="#101828"/>
<path d="M54.3321 16.893L53.4089 23.8123H48.5656L50.5292 15.0502C50.6537 14.0919 50.6066 13.414 50.3891 13.0164C50.1728 12.6201 49.7909 12.4219 49.2447 12.4219C48.8532 12.4219 48.4508 12.5379 48.0387 12.7699C47.6255 13.0019 47.2291 13.3294 46.8485 13.7511C46.4666 14.1741 46.1162 14.684 45.7972 15.2822C45.4781 15.8803 45.2195 16.5449 45.0238 17.2772L43.9604 23.8135H38.1528C39.8688 17.9914 41.3551 12.4557 41.7381 7.82031H45.8515C46.295 7.82031 46.6406 7.92907 46.8871 8.14537C47.0515 8.29038 47.0575 8.51272 46.9028 8.81362L45.4358 12.1971C46.2298 11.083 46.7566 10.3084 47.536 9.55436C48.446 8.67465 49.7982 7.82152 50.8181 7.82152C56.0903 7.82152 54.7949 13.4128 54.7949 13.4128L54.3297 16.8942L54.3321 16.893Z" fill="#101828"/>
<path d="M63.825 7.81936C62.3036 12.7436 61.0699 18.1391 60.0766 23.8125H54.936C56.7716 18.1439 58.1782 12.7617 58.9225 7.81936H63.8238H63.825ZM62.0934 6.31732C61.8009 6.31732 61.5351 6.26536 61.2958 6.16265C61.0578 6.05993 60.8584 5.91009 60.7013 5.71191C60.543 5.51495 60.4318 5.26843 60.3666 4.97721C60.3013 4.68598 60.2941 4.35247 60.3436 3.97786C60.4089 3.49088 60.543 3.04135 60.7484 2.62566C60.9527 2.20998 61.2052 1.85108 61.5001 1.54777C61.7961 1.24567 62.1248 1.00883 62.4885 0.837235C62.8523 0.666851 63.2232 0.581055 63.6015 0.581055C63.8939 0.581055 64.1585 0.633016 64.3966 0.73573C64.6334 0.838444 64.8304 0.989493 64.9875 1.19009C65.1458 1.38947 65.257 1.63599 65.3234 1.92721C65.3911 2.21843 65.3996 2.55195 65.3488 2.92656C65.2848 3.40992 65.1506 3.85702 64.9452 4.2715C64.741 4.68598 64.4884 5.04367 64.1912 5.34577C63.8939 5.64787 63.564 5.88471 63.2015 6.05872C62.839 6.23032 62.4692 6.31732 62.091 6.31732H62.0934Z" fill="#101828"/>
<path d="M87.6692 11.2436C87.6921 12.0823 87.7079 12.3348 87.5834 13.3027L87.1544 23.7034H81.9885L83.3153 14.9413C83.4398 13.9831 83.638 12.3131 82.032 12.3131C79.869 12.3131 78.7754 15.4875 77.2733 23.8098H73.0754C75.5647 13.8091 75.4475 12.4194 73.7557 12.4194C71.1166 12.4194 69.7305 16.5437 69.5336 17.2747L68.1101 23.811H62.6626C64.3785 17.9889 65.8902 12.4001 66.2733 7.76465H70.3867C70.8302 7.76465 71.1758 7.8734 71.4223 8.08971C71.5866 8.23472 71.5915 8.45706 71.438 8.75795L69.8224 12.156C70.6163 11.0418 71.4029 9.94339 72.2102 9.27273C73.1853 8.4631 74.5593 7.76465 76.4879 7.76465C78.4165 7.76465 79.376 9.67875 79.0751 10.4243C79.0594 10.4606 78.6328 11.5941 78.6328 11.5941C78.6328 11.5941 80.3354 7.76465 83.7854 7.76465C87.2354 7.76465 87.6668 11.2436 87.6668 11.2436H87.6692Z" fill="#101828"/>
<path d="M103.622 4.65828C99.7289 2.59071 94.2874 5.21777 91.4707 10.5251C88.6539 15.8311 89.5276 21.8103 93.421 23.8779C97.3145 25.9454 102.756 23.3184 105.573 18.0111C108.389 12.705 107.516 6.72585 103.622 4.65828ZM101.796 14.3943C100.639 17.3489 98.5217 19.1748 95.7726 18.0099C93.421 16.7616 94.192 13.3612 95.5079 10.8815C96.8239 8.40311 98.7609 7.41101 100.563 7.9415C102.575 8.53241 103.173 10.8815 101.796 14.3943Z" fill="#101828"/>
<path d="M30.5263 23.0021C29.6417 23.6172 28.588 23.7706 27.5669 23.7706C26.8757 23.7706 25.9126 23.6595 25.3592 23.3912C24.8069 23.1229 24.3489 22.729 23.9864 22.2118C23.6251 21.6958 23.3689 21.0614 23.2203 20.3122C23.0705 19.5618 23.0596 18.7014 23.1877 17.7298L24.7755 7.7666H29.5523C29.9148 8.10979 30.0683 8.61973 29.9535 9.10551L27.9173 17.7057C27.8001 18.6676 27.8509 19.3479 28.0696 19.7455C28.2871 20.1442 28.6835 20.3424 29.2587 20.3424C29.6417 20.3424 30.0381 20.2361 30.4477 20.0246C30.8574 19.8131 31.2513 19.511 31.6271 19.1171C32.0054 18.7244 32.3558 18.2519 32.6808 17.6972C33.0047 17.145 33.563 15.7034 33.7769 15.0206C34.4681 12.2618 35.0735 9.62028 35.1073 7.7666H39.7488C39.1929 9.69521 37.4552 16.0163 36.729 23.8129H31.7504L33.2452 18.7461C32.618 20.682 31.9486 21.7586 30.5287 23.0033L30.5263 23.0021Z" fill="#101828"/>
</g>
<defs>
<clipPath id="clip0_1164_10037">
<rect width="106.254" height="24" fill="white" transform="translate(0.970215 0.582031)"/>
</clipPath>
</defs>
</svg>
