<svg width="20" height="21" viewBox="0 0 20 21" fill="none" xmlns="http://www.w3.org/2000/svg">
<path fill-rule="evenodd" clip-rule="evenodd" d="M4.16663 4.11686C3.94561 4.11686 3.73365 4.20466 3.57737 4.36094C3.42109 4.51722 3.33329 4.72918 3.33329 4.9502V16.6169C3.33329 16.8379 3.42109 17.0498 3.57737 17.2061C3.73365 17.3624 3.94561 17.4502 4.16663 17.4502H7.49996C7.9602 17.4502 8.33329 17.8233 8.33329 18.2835C8.33329 18.7438 7.9602 19.1169 7.49996 19.1169H4.16663C3.50358 19.1169 2.8677 18.8535 2.39886 18.3846C1.93002 17.9158 1.66663 17.2799 1.66663 16.6169V4.9502C1.66663 4.28715 1.93002 3.65127 2.39886 3.18243C2.8677 2.71359 3.50358 2.4502 4.16663 2.4502H7.49996C7.9602 2.4502 8.33329 2.82329 8.33329 3.28353C8.33329 3.74377 7.9602 4.11686 7.49996 4.11686H4.16663ZM12.744 6.02761C13.0695 5.70217 13.5971 5.70217 13.9225 6.02761L18.0892 10.1943C18.4147 10.5197 18.4147 11.0473 18.0892 11.3728L13.9225 15.5395C13.5971 15.8649 13.0695 15.8649 12.744 15.5395C12.4186 15.214 12.4186 14.6864 12.744 14.3609L15.4881 11.6169H7.49996C7.03972 11.6169 6.66663 11.2438 6.66663 10.7835C6.66663 10.3233 7.03972 9.9502 7.49996 9.9502H15.4881L12.744 7.20612C12.4186 6.88068 12.4186 6.35304 12.744 6.02761Z" fill="#344054"/>
</svg>
