<svg width="24" height="25" viewBox="0 0 24 25" fill="none" xmlns="http://www.w3.org/2000/svg">
<path d="M13.5705 20.8459C12.7862 18.4519 14.479 16.6745 17.8436 15.8649C20.7152 15.1743 22.8752 15.6202 23.9588 17.1971C23.9902 16.7159 24.0023 16.212 23.9983 15.6838C23.9999 13.316 23.3472 10.9918 22.2829 8.91297C21.5011 9.43561 20.1722 9.43008 18.1817 9.02565C15.3012 8.4401 14.0433 7.4923 14.4378 6.0654C14.8824 4.46015 16.3517 3.73979 18.4116 3.8905C16.3372 2.04881 13.9618 0.920572 11.7938 0.933707C7.85227 0.957212 3.29917 4.90121 1.18843 10.035C2.04854 9.41141 3.34032 9.08926 4.95081 9.08926C8.04511 9.08926 9.85086 10.2382 9.85086 12.4035C9.85086 14.1712 8.3033 14.7899 4.95081 14.7899C2.3503 14.7899 0.77451 14.3233 0.223426 13.3257C0.0741572 14.1608 -0.00410805 15.0091 -0.000880617 15.8628C0.00476739 18.0571 0.30976 19.8421 1.12711 21.2303C2.01223 20.2389 3.61949 19.9534 5.63906 20.3661C8.33881 20.9178 9.63381 22.2417 9.10855 24.1304C9.03432 24.3979 8.92701 24.6261 8.78581 24.8183C9.75162 24.9012 10.8159 24.9392 11.9882 24.9323C18.2882 24.895 21.4624 23.6693 22.9195 21.1618C22.1692 21.5372 21.167 21.8635 19.9083 22.1663C16.2589 23.0443 14.1627 22.653 13.5705 20.8452V20.8459Z" fill="#A8A6FE"/>
<path d="M4.95085 14.7905C8.30334 14.7905 9.8509 14.1718 9.8509 12.4041C9.8509 10.2388 8.04595 9.08984 4.95085 9.08984C3.34116 9.08984 2.04858 9.412 1.18847 10.0356C0.754376 11.0905 0.424371 12.1953 0.222656 13.327C0.774547 14.3245 2.34953 14.7912 4.95004 14.7912L4.95085 14.7905Z" fill="#6663FC"/>
<path d="M17.844 15.8646C14.4802 16.6741 12.7866 18.4515 13.5709 20.8456C14.1631 22.6534 16.2601 23.0447 19.9087 22.1667C21.1674 21.8639 22.1695 21.5376 22.9199 21.1622C23.5477 20.081 23.8567 18.7619 23.9592 17.1968C22.8755 15.6205 20.7156 15.1739 17.844 15.8646Z" fill="#6663FC"/>
<path d="M14.4384 6.0654C14.0438 7.49229 15.3025 8.44009 18.1822 9.02565C20.1719 9.43007 21.5016 9.4356 22.2834 8.91296C21.287 6.96757 19.9306 5.23788 18.4121 3.89049C16.3522 3.74047 14.8829 4.46014 14.4384 6.0654Z" fill="#6663FC"/>
<path d="M5.63939 20.3664C3.61983 19.9536 2.01256 20.2392 1.12744 21.2305C2.33369 23.2796 4.65664 24.4631 8.78614 24.8185C8.92653 24.6256 9.03384 24.3975 9.10888 24.1306C9.63495 22.2419 8.33914 20.918 5.63939 20.3664Z" fill="#6663FC"/>
</svg>
