<svg width="25" height="25" viewBox="0 0 25 25" fill="none" xmlns="http://www.w3.org/2000/svg">
<path d="M14.3212 20.7956C13.5369 18.3895 15.2297 16.6032 18.5943 15.7896C21.4659 15.0955 23.6259 15.5436 24.7095 17.1284C24.741 16.6449 24.7531 16.1383 24.749 15.6075C24.7507 13.2278 24.0979 10.8919 23.0337 8.80267C22.2518 9.32794 20.9229 9.32238 18.9324 8.91593C16.0519 8.32743 14.794 7.37486 15.1886 5.9408C15.6332 4.32748 17.1024 3.6035 19.1624 3.75497C17.0879 1.90403 14.7125 0.770116 12.5445 0.783317C8.603 0.80694 4.0499 4.77076 1.93916 9.93033C2.79927 9.30362 4.09105 8.97985 5.70154 8.97985C8.79584 8.97985 10.6016 10.1346 10.6016 12.3107C10.6016 14.0873 9.05404 14.7091 5.70154 14.7091C3.10104 14.7091 1.52524 14.2402 0.974158 13.2376C0.82489 14.0769 0.746624 14.9294 0.749852 15.7875C0.7555 17.9928 1.06049 19.7867 1.87784 21.1819C2.76296 20.1855 4.37022 19.8986 6.38979 20.3134C9.08954 20.8678 10.3845 22.1984 9.85928 24.0966C9.78505 24.3654 9.67774 24.5947 9.53654 24.7879C10.5023 24.8713 11.5666 24.9095 12.739 24.9025C19.0389 24.865 22.2131 23.6331 23.6703 21.1131C22.9199 21.4904 21.9178 21.8183 20.6591 22.1226C17.0097 23.005 14.9134 22.6118 14.3212 20.7949V20.7956Z" fill="#88D9F8"/>
<path d="M5.70158 14.7098C9.05407 14.7098 10.6016 14.0879 10.6016 12.3113C10.6016 10.1352 8.79669 8.98047 5.70158 8.98047C4.0919 8.98047 2.79931 9.30424 1.9392 9.93095C1.50511 10.9912 1.1751 12.1015 0.973389 13.2389C1.52528 14.2415 3.10027 14.7105 5.70077 14.7105L5.70158 14.7098Z" fill="#27B3F4"/>
<path d="M18.5945 15.7895C15.2307 16.6031 13.5371 18.3894 14.3213 20.7955C14.9136 22.6124 17.0106 23.0057 20.6592 22.1233C21.9179 21.819 22.92 21.491 23.6704 21.1137C24.2981 20.0271 24.6072 18.7014 24.7096 17.1284C23.626 15.5442 21.4661 15.0954 18.5945 15.7895Z" fill="#27B3F4"/>
<path d="M15.1888 5.94068C14.7943 7.37474 16.053 8.32731 18.9327 8.91581C20.9224 9.32226 22.2521 9.32782 23.0339 8.80255C22.0375 6.84739 20.6811 5.10901 19.1626 3.75485C17.1027 3.60408 15.6334 4.32736 15.1888 5.94068Z" fill="#27B3F4"/>
<path d="M6.38988 20.3131C4.37031 19.8983 2.76305 20.1852 1.87793 21.1816C3.08418 23.241 5.40713 24.4305 9.53663 24.7876C9.67702 24.5937 9.78433 24.3644 9.85937 24.0963C10.3854 22.1981 9.08963 20.8675 6.38988 20.3131Z" fill="#27B3F4"/>
</svg>
