<svg width="245" height="41" viewBox="0 0 245 41" fill="none" xmlns="http://www.w3.org/2000/svg">
<g clip-path="url(#clip0_1_2254)">
<path d="M17.0868 1.97433C31.7445 1.97433 37.7993 4.91538 37.7993 10.4649C37.7993 14.4813 35.4802 15.954 30.1595 16.9732C29.1403 17.1978 28.6307 17.5951 28.6307 18.2732C28.6307 19.124 29.421 19.4608 30.8376 19.4608C32.2541 19.4608 33.4417 19.0635 34.7417 19.0635C39.4966 19.0635 41.8719 23.5895 41.8719 29.6444C41.8719 36.0965 39.2677 39.2104 32.876 39.2104C26.4843 39.2104 23.1977 36.3816 23.0855 28.6295C23.0293 21.6116 21.5566 19.802 19.3498 19.802C17.9894 19.802 17.4841 20.5362 17.4841 21.5554C17.4841 25.0622 20.7102 27.3295 20.7102 32.4213C20.7102 36.9473 17.6525 39.2708 12.6169 39.2708C5.31824 39.2708 1.80712 36.9517 1.35365 31.346C1.01247 26.4788 2.48516 22.2896 3.1632 17.932C3.89738 13.9156 4.2947 10.4045 5.48235 7.00996C6.73046 3.33472 9.7838 1.97433 17.0868 1.97433ZM20.0839 15.2198C23.5907 15.2198 25.6292 14.3691 25.6292 12.5595C25.6292 10.5211 23.8758 9.67461 19.4621 9.67461C17.0306 9.67461 15.4456 10.0719 15.4456 12.3349C15.4456 14.4295 16.5771 15.2198 20.0883 15.2198M17.0868 0.678711C10.4014 0.678711 5.92286 1.6677 4.25583 6.59536C3.31867 9.27297 2.85657 12.0197 2.36855 14.9262C2.2174 15.8245 2.06192 16.753 1.88917 17.6988V17.7161L1.88486 17.7333C1.68619 18.9944 1.42707 20.2252 1.15067 21.5295C0.489909 24.6303 -0.192449 27.8392 0.0580368 31.4366C0.718801 39.6206 7.53806 40.5664 12.6126 40.5664C18.4903 40.5664 22.0015 37.5217 22.0015 32.4213C22.0015 29.3334 20.952 27.2259 20.0278 25.3645C19.3541 24.0128 18.7754 22.8424 18.7754 21.5554C18.7754 21.2013 18.7754 21.0976 19.3454 21.0976C19.9976 21.0976 21.7251 21.0976 21.7855 28.6424C21.9021 36.74 25.4262 40.5103 32.8717 40.5103C39.7989 40.5103 43.1632 36.956 43.1632 29.6487C43.1632 22.3414 39.9328 17.7722 34.7374 17.7722C33.9989 17.7722 33.3208 17.8759 32.6687 17.9795C32.0468 18.0745 31.4551 18.1695 30.8332 18.1695C30.8203 18.1695 30.8073 18.1695 30.7944 18.1695C35.925 17.133 39.0863 15.4315 39.0863 10.4649C39.095 1.69361 26.5318 0.678711 17.0868 0.678711ZM20.0839 13.9242C16.7369 13.9242 16.7369 13.2548 16.7369 12.3349C16.7369 11.5144 16.7369 10.9702 19.4577 10.9702C24.3293 10.9702 24.3293 12.0456 24.3293 12.5595C24.3293 13.5658 22.1353 13.9242 20.0796 13.9242H20.0839Z" fill="#6663FC"/>
<path d="M73.5063 1.86202C76.1667 1.86202 77.5789 2.88124 78.7709 5.65386C79.9024 8.65537 80.0708 12.6718 80.8654 17.4267C81.5435 22.9719 83.9792 27.1611 83.6381 32.4256C83.2407 36.9516 81.1462 39.1585 76.1105 39.1585C71.9214 39.1585 69.6022 37.6858 69.6022 33.4405C69.6022 29.8171 71.3556 26.0814 71.3556 23.4815C71.3556 21.672 70.7337 20.9896 69.5461 20.9896C68.3584 20.9896 67.5638 22.0089 67.1708 24.4964C67.0023 25.9691 66.8857 27.9471 66.3804 30.8363C65.3612 37.0035 62.0229 39.2103 55.4023 39.2103C47.5379 39.2103 43.9706 36.3254 43.461 30.3829C43.1198 25.6841 44.9337 22.2334 45.724 17.1978C46.5748 12.6718 46.7432 8.87995 47.8747 5.71C49.0624 2.8251 50.7035 1.91817 53.1954 1.91817C56.253 1.91817 58.1749 3.2181 58.6845 6.05118C59.0818 8.76766 58.1749 10.9745 58.7968 13.013C59.2502 14.9953 60.8352 15.5049 63.3228 15.5049C66.1516 15.5049 67.512 14.4295 68.0216 12.7884C68.5873 10.75 67.9654 8.71152 68.3627 6.39236C68.8724 3.61974 70.5135 1.86634 73.5107 1.86634M73.5063 0.566406C70.0773 0.566406 67.7322 2.60484 67.0801 6.15483C66.8728 7.37703 66.9117 8.50854 66.9462 9.51048C66.9851 10.5902 67.0153 11.5273 66.7735 12.4213C66.51 13.2591 65.8708 14.2093 63.3185 14.2093C60.615 14.2093 60.2392 13.5355 60.0535 12.7279L60.0449 12.6847L60.0319 12.6416C59.7771 11.8037 59.8592 10.832 59.9585 9.70482C60.0578 8.57764 60.1701 7.29929 59.9585 5.8698V5.8482L59.9499 5.82661C59.3453 2.47528 56.944 0.631187 53.1868 0.631187C49.9866 0.631187 47.9784 2.04773 46.6698 5.22631L46.6568 5.25654L46.6482 5.28677C45.8708 7.45909 45.5383 9.79552 45.1539 12.499C44.951 13.9242 44.7393 15.4012 44.4457 16.9732V16.9905L44.4413 17.0078C44.1606 18.7914 43.746 20.3807 43.3401 21.9225C42.6145 24.6865 41.9322 27.2993 42.1654 30.4908C42.7441 37.2453 47.0714 40.5232 55.3979 40.5232C62.8952 40.5232 66.5618 37.6945 67.6545 31.0652C68.0388 28.8843 68.203 27.2172 68.3325 25.8784C68.3757 25.4466 68.4102 25.0536 68.4534 24.6908C68.7082 23.1058 69.0753 22.3025 69.5461 22.3025C69.857 22.3025 70.06 22.3025 70.06 23.4988C70.06 24.531 69.7059 25.9 69.3301 27.3554C68.8508 29.2211 68.3023 31.3373 68.3023 33.4621C68.3023 38.1782 70.8546 40.4757 76.1062 40.4757C81.6515 40.4757 84.45 37.9579 84.925 32.5595V32.5465V32.5336C85.141 29.2082 84.3118 26.2585 83.5128 23.4038C82.9687 21.469 82.4115 19.4695 82.1438 17.2928V17.2669L82.1351 17.241C81.8803 15.7208 81.6946 14.287 81.5132 12.9007C81.1289 9.94235 80.792 7.38999 79.9758 5.22631L79.9671 5.2004L79.9542 5.17448C78.5592 1.92248 76.6892 0.596637 73.502 0.596637L73.5063 0.566406Z" fill="#6663FC"/>
<path d="M117.311 1.97434C119.859 1.97434 121.328 2.88128 122.52 5.87847C123.651 9.10456 123.595 12.4991 124.502 17.5952C125.577 23.5939 127.219 26.8761 126.821 31.6872C126.424 37.1201 123.371 39.1585 117.54 39.1585C110.41 39.1585 107.409 36.5544 106.618 29.4241C104.921 17.9363 103.561 14.4814 101.47 14.4814C100.339 14.4814 99.7731 15.1033 99.7731 17.5952C99.7731 21.5554 104.075 25.8007 104.075 31.8556C104.075 37.1201 100.792 39.1542 95.4716 39.1542C89.244 39.1542 86.0223 37.0596 85.625 31.7951C85.2276 26.5306 87.3783 23.758 88.3414 17.5908C89.0756 12.4991 89.1318 9.15638 90.2676 5.93029C91.3991 2.87264 93.3252 1.97003 97.4539 1.97003C102.943 1.97003 104.584 3.66728 106.281 8.13716C107.525 11.5317 109.283 13.2894 111.317 13.2894C112.846 13.2894 113.524 12.3825 113.809 10.8536C114.15 8.4222 113.299 7.40298 113.524 5.07951C113.748 2.70421 115.053 1.96571 117.316 1.96571M117.311 0.678728C116.154 0.678728 112.639 0.678728 112.228 4.9629C112.103 6.2326 112.263 7.18272 112.405 8.02056C112.548 8.86271 112.669 9.58825 112.522 10.6507C112.267 11.9981 111.801 11.9981 111.313 11.9981C109.361 11.9981 108.082 9.30322 107.491 7.69665C105.685 2.93742 103.72 0.678728 97.4453 0.678728C93.3555 0.678728 90.5267 1.48201 89.0454 5.48547V5.4941L89.0367 5.50274C88.2032 7.88236 87.9268 10.2447 87.5813 13.2333C87.4388 14.4684 87.2747 15.872 87.0544 17.4051C86.683 19.7761 86.1346 21.6116 85.6034 23.3823C84.8173 26.0167 84.0702 28.4999 84.325 31.8901C84.5539 34.9089 85.6206 37.0683 87.5943 38.4935C89.4082 39.8064 91.9821 40.4455 95.463 40.4455C103.643 40.4455 105.362 35.7727 105.362 31.8513C105.362 28.2149 103.975 25.2609 102.749 22.6567C101.842 20.7306 101.06 19.0678 101.06 17.5865C101.06 16.2995 101.233 15.8849 101.289 15.7813C101.319 15.777 101.375 15.7683 101.462 15.7683C101.898 15.7683 102.446 16.6062 102.965 18.0659C103.738 20.2512 104.489 23.9091 105.327 29.5796C106.191 37.2929 109.728 40.4412 117.536 40.4412C121.803 40.4412 127.542 39.5429 128.108 31.7692C128.385 28.392 127.715 25.71 126.942 22.6092C126.541 21.007 126.13 19.3486 125.772 17.3576C125.431 15.4315 125.223 13.7213 125.042 12.214C124.74 9.71781 124.48 7.55845 123.738 5.44228L123.729 5.41637L123.72 5.39045C122.39 2.03481 120.533 0.665771 117.311 0.665771V0.678728Z" fill="#6663FC"/>
<path d="M138.987 1.9181C141.479 1.9181 143.064 2.82503 144.251 5.76608C145.383 8.93602 145.383 12.6717 146.178 17.5951C146.856 23.4815 149.404 26.6514 149.006 31.9116C148.609 37.2323 145.383 39.2707 138.987 39.2707C132.591 39.2707 129.365 37.2323 128.972 31.9116C128.574 26.6471 131.122 23.4772 131.801 17.5951C132.535 12.6717 132.535 8.93602 133.666 5.76608C134.854 2.82503 136.439 1.9181 138.987 1.9181ZM138.987 0.622483C135.735 0.622483 133.783 2.01743 132.466 5.28238L132.457 5.3083L132.448 5.33421C131.645 7.57994 131.382 10.0243 131.079 12.8574C130.924 14.2912 130.764 15.7726 130.522 17.405V17.4266L130.518 17.4482C130.241 19.8581 129.628 21.8015 129.037 23.6801C128.216 26.293 127.439 28.7633 127.68 32.011C128.251 39.681 134.409 40.5663 138.991 40.5663C142.606 40.5663 145.15 39.9574 146.998 38.6445C148.993 37.228 150.073 35.06 150.298 32.011C150.544 28.7676 149.766 26.2973 148.942 23.6845C148.35 21.8058 147.741 19.8624 147.46 17.4482V17.418L147.452 17.3878C147.175 15.6732 146.998 14.1271 146.83 12.6328C146.519 9.89046 146.251 7.51948 145.469 5.32989L145.461 5.30398L145.452 5.27806C144.135 2.01311 142.2 0.618164 138.987 0.618164V0.622483Z" fill="#6663FC"/>
<path d="M188.903 1.97433C194.504 1.97433 196.374 2.99355 197.506 5.9346C198.637 9.10454 198.749 12.5552 199.432 17.5347C200.222 23.8141 202.204 26.591 201.863 31.9074C201.466 37.0553 198.469 39.206 192.807 39.206C187.145 39.206 185.448 37.0553 185.448 32.2442C185.448 25.7359 188.333 23.4168 188.389 17.6427C188.333 15.3796 187.823 14.4727 186.294 14.4727C184.541 14.4727 183.634 16.5673 183.634 19.1715C183.634 23.8141 184.143 26.9797 184.2 31.6785C184.143 36.2045 182.33 38.9815 176.335 38.9815C170.341 38.9815 168.527 36.2088 168.527 31.6785C168.527 27.1482 169.093 23.8141 169.093 19.1715C169.093 16.5673 168.13 14.4727 166.376 14.4727C164.903 14.4727 164.338 15.3796 164.338 17.6427C164.338 23.4168 167.223 25.7359 167.223 32.2442C167.223 37.0553 165.24 39.206 159.864 39.206C154.206 39.206 151.205 37.0553 150.863 31.9074C150.466 26.5867 152.448 23.8141 153.239 17.5347C153.917 12.5552 154.029 9.10022 155.165 5.9346C156.296 2.99355 158.222 1.97433 163.768 1.97433C171.127 1.97433 171.693 4.23734 172.029 7.91689C172.595 11.0307 173.446 13.0087 176.331 13.0087C179.216 13.0087 180.067 11.0264 180.632 7.91689C181.086 4.23734 181.539 1.97433 188.894 1.97433M188.903 0.678711C180.853 0.678711 179.885 3.46429 179.358 7.72255C178.732 11.1387 177.92 11.7174 176.339 11.7174C174.759 11.7174 173.947 11.143 173.321 7.74414C173.131 5.7273 172.85 3.9523 171.42 2.62214C169.978 1.28333 167.62 0.68303 163.776 0.68303C158.607 0.68303 155.515 1.44744 153.964 5.47681V5.48977L153.951 5.50272C153.075 7.95576 152.785 10.4736 152.418 13.6608C152.284 14.8268 152.146 16.0318 151.965 17.3663C151.649 19.8668 151.153 21.7541 150.669 23.5766C149.978 26.1851 149.33 28.6511 149.581 32.011C149.956 37.729 153.325 40.5103 159.872 40.5103C164.277 40.5103 166.929 39.0506 167.987 35.967C169.222 38.8649 171.986 40.2857 176.339 40.2857C179.596 40.2857 181.915 39.517 183.435 37.9363C183.962 37.3878 184.381 36.7487 184.705 36.0102C185.776 39.0678 188.419 40.5146 192.807 40.5146C199.328 40.5146 202.714 37.7333 203.154 32.0197C203.366 28.677 202.718 26.2326 202.027 23.6457C201.539 21.8059 201.03 19.9013 200.714 17.3835C200.533 16.0361 200.39 14.8312 200.257 13.6651C199.889 10.4779 199.6 7.96008 198.723 5.50704V5.49409L198.71 5.48113C197.333 1.89659 194.858 0.687348 188.898 0.687348L188.903 0.678711ZM185.214 25.6323C185.214 25.6323 185.214 25.6021 185.214 25.5891C185.072 23.5161 184.938 21.5597 184.938 19.1801C184.938 17.5304 185.417 15.777 186.303 15.777C186.786 15.777 187.05 15.777 187.102 17.6599C187.071 20.2166 186.437 22.0607 185.763 24.0171C185.582 24.5483 185.396 25.0795 185.219 25.6323H185.214ZM167.49 25.7143C167.313 25.1529 167.128 24.6088 166.946 24.0689C166.273 22.0996 165.638 20.2382 165.638 17.6513C165.638 15.777 165.966 15.777 166.38 15.777C167.192 15.777 167.801 17.241 167.801 19.1801C167.801 21.4474 167.667 23.3175 167.525 25.2997C167.516 25.4379 167.503 25.5761 167.495 25.7143H167.49Z" fill="#6663FC"/>
<path d="M222.913 1.9181C234.854 1.9181 243.228 11.1429 243.116 23.1403C243.172 34.0623 239.38 39.2146 222.913 39.2146C206.446 39.2146 202.991 34.0667 202.991 23.2008C202.991 11.2034 211.252 1.92242 222.913 1.92242M223.025 18.2731C226.817 18.2731 228.57 17.4223 228.57 15.1032C228.57 12.5551 226.588 11.2552 223.025 11.2552C219.462 11.2552 217.48 12.5551 217.48 15.1032C217.48 17.31 219.29 18.2731 223.025 18.2731ZM222.913 0.622483C216.957 0.622483 211.529 2.95027 207.629 7.1783C203.803 11.3243 201.699 17.0164 201.699 23.1964C201.699 29.3765 203.051 33.5527 206.087 36.2476C209.361 39.1541 214.707 40.5059 222.913 40.5059C231.866 40.5059 237.32 39.0375 240.589 35.751C243.263 33.0647 244.442 29.1692 244.411 23.1317C244.472 16.7443 242.231 10.914 238.098 6.74211C234.185 2.7948 228.795 0.618164 222.913 0.618164V0.622483ZM223.025 16.9775C218.776 16.9775 218.776 15.7121 218.776 15.1032C218.776 13.4102 220.205 12.5508 223.025 12.5508C227.275 12.5508 227.275 14.4726 227.275 15.1032C227.275 15.8935 227.275 16.9775 223.025 16.9775Z" fill="#6663FC"/>
</g>
<defs>
<clipPath id="clip0_1_2254">
<rect width="244.409" height="40" fill="white" transform="translate(0.00622559 0.566406)"/>
</clipPath>
</defs>
</svg>
