<svg width="178" height="41" viewBox="0 0 178 41" fill="none" xmlns="http://www.w3.org/2000/svg">
<g clip-path="url(#clip0_1_2254)">
<path d="M20.6142 39.2796C22.3523 30.3676 23.2928 23.2039 19.6313 16.8779C23.2586 17.0189 28.1586 15.0754 30.0739 11.4582C31.3025 8.94274 30.7526 6.01238 26.0842 5.4404C18.5337 4.51598 12.2198 7.70615 9.33579 10.1088C6.80218 12.2195 5.57364 16.3482 8.00856 16.9041L7.02372 19.6572C-2.19838 16.4429 -0.0494404 11.7563 5.04597 7.74441C9.46871 4.25818 21.4016 -2.3296 33.5279 2.14751C45.7771 7.71018 33.8099 19.7418 26.0842 19.6572L34.6296 39.2796H20.6122H20.6142Z" fill="#27B3F4"/>
<path d="M10.8483 40.5666L18.2699 12.5398H10.8483C10.0367 20.3279 6.68335 31.6446 0.665527 40.5666H10.8483Z" fill="#27B3F4"/>
<path d="M89.6016 27.7515L88.0629 39.2836H79.9908L83.2636 24.6801C83.471 23.083 83.3925 21.9532 83.03 21.2906C82.6695 20.63 82.033 20.2997 81.1227 20.2997C80.4702 20.2997 79.7995 20.493 79.1127 20.8797C78.424 21.2664 77.7634 21.8122 77.129 22.5151C76.4925 23.22 75.9085 24.0699 75.3768 25.0668C74.8451 26.0637 74.4141 27.1714 74.0878 28.3919L72.3155 39.2856H62.6362C65.4961 29.5822 67.9733 20.3561 68.6118 12.6304H75.4674C76.2065 12.6304 76.7825 12.8116 77.1934 13.1721C77.4673 13.4138 77.4774 13.7844 77.2196 14.2859L74.7746 19.9251C76.0978 18.0682 76.9759 16.7772 78.2749 15.5205C79.7915 14.0543 82.0451 12.6324 83.7449 12.6324C92.532 12.6324 90.373 21.9511 90.373 21.9511L89.5976 27.7535L89.6016 27.7515Z" fill="#27B3F4"/>
<path d="M105.424 12.6283C102.888 20.8353 100.832 29.8278 99.1762 39.2836H90.6086C93.6679 29.8359 96.0122 20.8655 97.2528 12.6283H105.422H105.424ZM102.538 10.1249C102.05 10.1249 101.607 10.0383 101.208 9.86711C100.812 9.69592 100.479 9.44618 100.217 9.11589C99.9536 8.7876 99.7683 8.37675 99.6595 7.89137C99.5508 7.406 99.5387 6.85014 99.6213 6.2258C99.73 5.41416 99.9536 4.66495 100.296 3.97214C100.636 3.27932 101.057 2.68116 101.549 2.17565C102.042 1.67215 102.59 1.27741 103.196 0.991421C103.802 0.707447 104.421 0.564453 105.051 0.564453C105.538 0.564453 105.979 0.651055 106.376 0.822245C106.771 0.993435 107.099 1.24518 107.361 1.57951C107.625 1.91182 107.81 2.32267 107.921 2.80805C108.034 3.29342 108.048 3.84928 107.963 4.47362C107.857 5.27922 107.633 6.0244 107.291 6.7152C106.95 7.406 106.529 8.00214 106.034 8.50564C105.538 9.00914 104.989 9.40389 104.384 9.6939C103.78 9.97989 103.164 10.1249 102.534 10.1249H102.538Z" fill="#27B3F4"/>
<path d="M145.164 18.3359C145.202 19.7336 145.228 20.1545 145.021 21.7677L144.306 39.1022H135.696L137.907 24.4987C138.115 22.9016 138.445 20.1183 135.769 20.1183C132.163 20.1183 130.341 25.4091 127.837 39.2795H120.841C124.99 22.6116 124.794 20.2955 121.975 20.2955C117.576 20.2955 115.266 27.1693 114.938 28.3878L112.565 39.2815H103.486C106.346 29.578 108.866 20.2633 109.504 12.5376H116.36C117.099 12.5376 117.675 12.7189 118.086 13.0794C118.36 13.321 118.368 13.6916 118.112 14.1931L115.419 19.8565C116.742 17.9996 118.053 16.1688 119.399 15.0511C121.024 13.7017 123.314 12.5376 126.528 12.5376C129.743 12.5376 131.342 15.7278 130.84 16.9704C130.814 17.0308 130.103 18.92 130.103 18.92C130.103 18.92 132.941 12.5376 138.691 12.5376C144.441 12.5376 145.16 18.3359 145.16 18.3359H145.164Z" fill="#27B3F4"/>
<path d="M171.753 7.35975C165.264 3.9138 156.194 8.29223 151.5 17.1377C146.805 25.9812 148.261 35.9464 154.75 39.3924C161.24 42.8383 170.309 38.4599 175.003 29.6144C179.698 20.771 178.242 10.8057 171.753 7.35975ZM168.709 23.5865C166.78 28.5107 163.252 31.5539 158.67 29.6124C154.75 27.5319 156.035 21.8646 158.229 17.7318C160.422 13.6011 163.65 11.9476 166.653 12.8318C170.006 13.8166 171.003 17.7318 168.709 23.5865Z" fill="#27B3F4"/>
<path d="M49.9259 37.9323C48.4516 38.9574 46.6954 39.2132 44.9936 39.2132C43.8416 39.2132 42.2364 39.0279 41.314 38.5808C40.3936 38.1337 39.6303 37.4771 39.0261 36.6151C38.424 35.7551 37.997 34.6978 37.7493 33.4491C37.4995 32.1984 37.4814 30.7645 37.6949 29.1452L40.3413 12.5398H48.3026C48.9068 13.1118 49.1626 13.9617 48.9713 14.7713L45.5777 29.1049C45.3823 30.7081 45.4669 31.8419 45.8314 32.5046C46.194 33.1692 46.8545 33.4995 47.8132 33.4995C48.4516 33.4995 49.1122 33.3222 49.795 32.9698C50.4777 32.6173 51.1343 32.1138 51.7606 31.4573C52.391 30.8027 52.9751 30.0153 53.5168 29.0908C54.0566 28.1704 54.9871 25.7677 55.3435 24.6298C56.4955 20.0319 57.5046 15.6293 57.561 12.5398H65.2967C64.3703 15.7541 61.4742 26.2894 60.2637 39.2837H51.9661L54.4574 30.839C53.4121 34.0654 52.2964 35.8599 49.9299 37.9343L49.9259 37.9323Z" fill="#27B3F4"/>
</g>
<defs>
<clipPath id="clip0_1_2254">
<rect width="177.091" height="40" fill="white" transform="translate(0.665527 0.566406)"/>
</clipPath>
</defs>
</svg>
